#!OML:ASF Y:\EmotionMaleHayes\Project 1\Capture day 1\Session 1\Male1.ASF
:FULLY-SPECIFIED
:DEGREES
1218
root 48.086 16.9168 1.24512 353.434 -3.6936 369.671
lowerback 9.39019 1.09709 -13.6631
upperback 3.71464 0.177697 -2.91038
thorax -1.3555 0.00416494 4.56856
lowerneck -20.4007 0.531135 1.80946
upperneck 27.5982 -0.215294 1.02866
head 12.5658 0.232826 0.0484821
rclavicle 1.67476e-014 0
rhumerus -42.5775 -3.74162 -80.4573
rradius 24.9347
rwrist 16.7789
rhand -5.54324 -30.1708
rfingers 7.12502
rthumb 20.2714 -59.1329
lclavicle 1.67476e-014 0
lhumerus -19.7223 -17.6391 87.7498
lradius 38.8369
lwrist -4.28766
lhand -17.7551 -25.4333
lfingers 7.12502
lthumb 8.50668 4.37534
rfemur -17.0974 -4.44767 7.68275
rtibia 51.3733
rfoot -13.8102 -5.44796
rtoes 19.6032
lfemur 12.0158 1.96768 -32.6508
ltibia 6.05743
lfoot -13.1703 5.90995
ltoes -5.38241
1219
root 48.0861 16.905 1.3682 353.732 -3.44172 369.833
lowerback 9.29242 0.951036 -13.8043
upperback 3.61435 -0.0204828 -2.9405
thorax -1.37141 -0.0891495 4.63509
lowerneck -20.5534 0.420969 1.89989
upperneck 27.7389 -0.407588 1.0083
head 12.6532 0.156352 -0.00609019
rclavicle -1.09332e-015 2.38542e-015
rhumerus -43.138 -3.84747 -80.16
rradius 25.1046
rwrist 15.9091
rhand -5.02627 -30.1314
rfingers 7.12502
rthumb 20.7682 -59.04
lclavicle -1.09332e-015 2.38542e-015
lhumerus -19.3543 -18.0378 87.7163
lradius 39.2549
lwrist -3.9919
lhand -17.2813 -25.8275
lfingers 7.12502
lthumb 8.96394 3.96208
rfemur -17.8395 -5.39231 7.43667
rtibia 48.9972
rfoot -14.0043 -5.65552
rtoes 21.7089
lfemur 12.2951 1.88402 -32.8678
ltibia 5.83615
lfoot -13.5204 5.66238
ltoes -5.35508
1220
root 48.0877 16.8925 1.50448 354.011 -3.45949 370.031
lowerback 8.99961 0.875628 -13.9621
upperback 3.52974 -0.0908845 -2.97299
thorax -1.28469 -0.126343 4.69426
lowerneck -20.702 0.358119 1.96484
upperneck 27.9026 -0.546153 1.0588
head 12.75 0.111235 -0.0204511
rclavicle -1.09332e-015 -2.98177e-014
rhumerus -43.8755 -3.54735 -80.0793
rradius 25.6208
rwrist 14.6904
rhand -4.93387 -30.2508
rfingers 7.12502
rthumb 20.8569 -59.1497
lclavicle -1.09332e-015 -2.98177e-014
lhumerus -19.0911 -18.6271 87.7317
lradius 39.7418
lwrist -3.39356
lhand -17.1413 -25.9311
lfingers 7.12502
lthumb 9.099 3.8526
rfemur -18.4429 -5.88587 7.81951
rtibia 46.3236
rfoot -13.3589 -7.90519
rtoes 6.7393
lfemur 12.6263 2.11427 -33.0759
ltibia 5.5881
lfoot -13.7642 5.52148
ltoes -6.1754
1221
root 48.0823 16.8927 1.64397 353.972 -3.49527 370.205
lowerback 8.99389 0.858927 -14.2349
upperback 3.53364 -0.133921 -2.93039
thorax -1.26497 -0.151223 4.89302
lowerneck -20.744 0.345507 1.86399
upperneck 27.9539 -0.579962 1.21058
head 12.7804 0.106973 0.0495691
rclavicle 3.47873e-016 3.49861e-014
rhumerus -44.3811 -3.8929 -79.6512
rradius 25.6837
rwrist 14.2794
rhand -5.90835 -30.294
rfingers 7.12502
rthumb 19.9205 -59.293
lclavicle 3.47873e-016 3.49861e-014
lhumerus -18.8866 -19.1693 87.8404
lradius 40.2819
lwrist -2.84065
lhand -17.3845 -25.7829
lfingers 7.12502
lthumb 8.86436 4.01096
rfemur -18.5418 -6.35042 7.85209
rtibia 43.5168
rfoot -13.4638 -8.62214
rtoes 2.00657
lfemur 13.317 2.58624 -33.1337
ltibia 5.30879
lfoot -13.8165 5.27018
ltoes -7.94469
1222
root 48.0819 16.8895 1.78444 354.07 -3.3835 370.275
lowerback 8.87595 0.771738 -14.3307
upperback 3.52642 -0.234531 -2.86668
thorax -1.18597 -0.206605 5.02273
lowerneck -20.7377 0.303292 1.79851
upperneck 27.8663 -0.625832 1.24129
head 12.7435 0.0828291 0.0644637
rclavicle 2.80286e-014 2.46493e-014
rhumerus -44.6372 -5.21836 -78.6416
rradius 25.2096
rwrist 14.6262
rhand -7.27535 -29.4942
rfingers 7.12502
rthumb 18.606 -58.6244
lclavicle 2.80286e-014 2.46493e-014
lhumerus -18.6203 -19.4158 87.9376
lradius 40.7419
lwrist -2.74595
lhand -17.4205 -25.7456
lfingers 7.12502
lthumb 8.82956 4.04967
rfemur -18.4048 -6.42734 8.01314
rtibia 40.2272
rfoot -13.7569 -9.68808
rtoes -0.330209
lfemur 13.8835 2.64928 -33.2099
ltibia 5.01922
lfoot -13.917 5.09124
ltoes -9.1812
1223
root 48.0868 16.8788 1.9223 354.305 -3.15491 370.287
lowerback 8.68541 0.598326 -14.3083
upperback 3.48004 -0.429763 -2.81306
thorax -1.09214 -0.307012 5.08519
lowerneck -20.7121 0.298864 1.81832
upperneck 27.7707 -0.64965 1.27953
head 12.6998 0.078409 0.0714203
rclavicle -5.14355e-015 2.22639e-014
rhumerus -44.9258 -7.19668 -76.8576
rradius 24.8433
rwrist 17.8198
rhand -5.49098 -29.5493
rfingers 7.12502
rthumb 20.3216 -58.5061
lclavicle -5.14355e-015 2.22639e-014
lhumerus -18.2954 -19.4115 87.951
lradius 41.0633
lwrist -2.67707
lhand -17.0942 -25.9185
lfingers 7.12502
lthumb 9.14449 3.86326
rfemur -18.5816 -7.4126 7.86508
rtibia 37.4416
rfoot -14.1659 -9.04237
rtoes 5.0172
lfemur 14.3014 2.21167 -33.4233
ltibia 4.77009
lfoot -14.2123 5.09985
ltoes -8.07384
1224
root 48.072 16.8628 2.05783 354.63 -3.26762 370.422
lowerback 8.30628 0.495181 -14.5383
upperback 3.40791 -0.523141 -2.85304
thorax -0.935935 -0.361407 5.17461
lowerneck -20.7821 0.324917 1.99902
upperneck 27.745 -0.689478 1.31014
head 12.7042 0.0841661 0.0457355
rclavicle -1.64494e-014 -6.52014e-014
rhumerus -45.2204 -5.88921 -77.9378
rradius 24.9845
rwrist 14.3166
rhand -8.03338 -30.9429
rfingers 7.12502
rthumb 17.8767 -60.1413
lclavicle -1.64494e-014 -6.52014e-014
lhumerus -17.9629 -19.6304 87.7046
lradius 41.3591
lwrist -2.23367
lhand -16.9858 -26.1173
lfingers 7.12502
lthumb 9.24904 3.65981
rfemur -18.6428 -7.01818 8.13895
rtibia 34.2926
rfoot -14.428 -9.77484
rtoes 5.51824
lfemur 14.5852 2.0633 -33.6101
ltibia 4.53736
lfoot -14.7356 5.02219
ltoes -5.49534
1225
root 48.0647 16.8535 2.19827 354.831 -3.25669 370.574
lowerback 8.00798 0.339532 -14.682
upperback 3.39851 -0.685987 -2.91292
thorax -0.74511 -0.454723 5.20043
lowerneck -20.8561 0.355581 2.12212
upperneck 27.6653 -0.719114 1.39721
head 12.6881 0.0953353 0.0530757
rclavicle 5.11871e-015 -5.56597e-015
rhumerus -45.4253 -6.21885 -77.7243
rradius 24.8598
rwrist 14.1244
rhand -8.17133 -31.1819
rfingers 7.12502
rthumb 17.744 -60.3923
lclavicle 5.11871e-015 -5.56597e-015
lhumerus -17.7457 -19.9577 87.4737
lradius 41.7635
lwrist -1.75725
lhand -17.2145 -26.0965
lfingers 7.12502
lthumb 9.02841 3.69032
rfemur -18.3253 -6.56309 7.95019
rtibia 30.7984
rfoot -15.2919 -9.10686
rtoes 16.3805
lfemur 14.9597 2.15805 -33.7511
ltibia 4.40506
lfoot -15.2222 4.82908
ltoes -5.10275
1226
root 48.0607 16.8453 2.34382 354.95 -3.26043 370.651
lowerback 7.80551 0.193807 -14.6912
upperback 3.36651 -0.844765 -2.92387
thorax -0.635067 -0.539046 5.20414
lowerneck -20.7985 0.382545 2.13335
upperneck 27.5402 -0.717323 1.51269
head 12.6269 0.110975 0.0951542
rclavicle -1.87355e-014 -8.34896e-015
rhumerus -45.9542 -6.7155 -77.2775
rradius 25.2423
rwrist 14.259
rhand -8.37958 -30.9801
rfingers 7.12502
rthumb 17.5436 -60.2085
lclavicle -1.87355e-014 -8.34896e-015
lhumerus -17.7424 -20.0104 87.4487
lradius 42.2154
lwrist -1.50083
lhand -17.3559 -26.0247
lfingers 7.12502
lthumb 8.8919 3.76791
rfemur -18.0071 -7.08539 8.10977
rtibia 27.5919
rfoot -14.7898 -9.34881
rtoes 15.6695
lfemur 15.3992 2.54566 -33.6947
ltibia 4.34315
lfoot -15.532 4.70704
ltoes -7.3663
1227
root 48.0536 16.832 2.48887 355.109 -3.3076 370.7
lowerback 7.58431 0.0659187 -14.7162
upperback 3.29494 -0.980603 -2.84967
thorax -0.559191 -0.608736 5.30437
lowerneck -20.6856 0.376453 1.97164
upperneck 27.3962 -0.670182 1.53796
head 12.5459 0.11531 0.139249
rclavicle 2.78299e-015 2.18663e-014
rhumerus -46.379 -6.37515 -77.2035
rradius 25.5514
rwrist 13.6731
rhand -8.93091 -30.9986
rfingers 7.12502
rthumb 17.0129 -60.2736
lclavicle 2.78299e-015 2.18663e-014
lhumerus -17.7114 -19.678 87.6138
lradius 42.4759
lwrist -1.43658
lhand -17.2833 -26.2624
lfingers 7.12502
lthumb 8.96196 3.52726
rfemur -17.679 -7.2095 8.36971
rtibia 24.4416
rfoot -14.227 -9.56651
rtoes 18.1215
lfemur 15.7874 2.68637 -33.6574
ltibia 4.31747
lfoot -15.9424 4.53222
ltoes -6.78818
1228
root 48.0486 16.8163 2.63307 355.28 -3.30203 370.867
lowerback 7.42652 0.0507144 -15.0783
upperback 3.21054 -1.00162 -2.6389
thorax -0.541867 -0.620999 5.72661
lowerneck -20.6833 0.29088 1.68813
upperneck 27.2927 -0.684288 1.51952
head 12.5032 0.0753642 0.177477
rclavicle 8.19987e-015 3.39922e-014
rhumerus -46.7965 -5.69261 -77.1499
rradius 25.8871
rwrist 12.5272
rhand -9.3441 -30.9635
rfingers 7.12502
rthumb 16.6152 -60.2723
lclavicle 8.19987e-015 3.39922e-014
lhumerus -17.5685 -19.3713 88.0901
lradius 42.5632
lwrist -1.53418
lhand -17.3976 -26.6363
lfingers 7.12502
lthumb 8.85172 3.15805
rfemur -17.6045 -8.50044 8.43681
rtibia 21.7924
rfoot -13.1239 -8.75665
rtoes 21.0268
lfemur 16.1459 2.48458 -33.9092
ltibia 4.33242
lfoot -16.4356 4.36616
ltoes -4.98124
1229
root 48.0427 16.7989 2.77628 355.424 -3.31255 371.176
lowerback 7.23029 0.0868978 -15.3489
upperback 3.19925 -0.937064 -2.7335
thorax -0.451739 -0.596264 5.76644
lowerneck -20.7694 0.225572 1.91183
upperneck 27.1948 -0.866837 1.54853
head 12.4819 0.0216663 0.120053
rclavicle 1.22501e-014 3.10104e-014
rhumerus -47.146 -6.10053 -77.0454
rradius 26.1056
rwrist 11.9665
rhand -9.75206 -30.5852
rfingers 7.12502
rthumb 16.2224 -59.9265
lclavicle 1.22501e-014 3.10104e-014
lhumerus -17.3982 -19.8612 88.1141
lradius 42.7986
lwrist -1.34175
lhand -17.7769 -26.7493
lfingers 7.12502
lthumb 8.48561 3.06023
rfemur -17.4257 -9.81807 8.45131
rtibia 19.0828
rfoot -11.5915 -8.39977
rtoes 21.8293
lfemur 16.4871 2.07116 -34.4223
ltibia 4.42782
lfoot -16.9774 4.35389
ltoes -3.56186
